PathFileType	4	(X/Y/Z)	C:/Users/beibeiliu/ov580/test_trc\sequence.10_training_dense_left.trc
DataRate	CameraRate	NumFrames	NumMarkers	Units	OrigDataRate	OrigDataStartFrame	OrigNumFrames
120	120	8	19	mm	120	28	82
Frame#	Time	ThumbCMC			ThumbMCP			ThumbIP			ThumbTip			IndexMCP			IndexPIP			IndexTip			MiddleMCP			MiddlePIP			MiddleTip			RingMCP			RingPIP			RingTip			PinkyMCP			PinkyPIP			PinkyTip			BackHand1			BackHand2			BackHand3	
		X0	Y0	Z0	X1	Y1	Z1	X2	Y2	Z2	X3	Y3	Z3	X4	Y4	Z4	X5	Y5	Z5	X6	Y6	Z6	X7	Y7	Z7	X8	Y8	Z8	X9	Y9	Z9	X10	Y10	Z10	X11	Y11	Z11	X12	Y12	Z12	X13	Y13	Z13	X14	Y14	Z14	X15	Y15	Z15	X16	Y16	Z16	X17	Y17	Z17	X18	Y18	Z18	
27	0.225	-182.762	67.388	43.0654	-159.521	91.116	40.9151	-130.994	89.1917	33.7239	-108.755	81.3859	36.7412	-131.851	66.7035	2.57187	-107.934	78.3379	-4.04416	-86.5454	82.3544	-2.37462	-114.821	60.3633	20.31	-107.207	69.6193	46.737	-140.56	68.5489	56.8447	-113.975	43.6755	35.7582	-121.056	59.555	59.8488	-145.806	54.8178	61.929	-116.244	28.8234	46.7732	-121.39	47.2787	60.9415	-148.14	46.5054	60.5524	-160.107	23.6655	28.5075	-183.69	15.9765	43.1363	-178.147	41.1668	24.2146	
28	0.233333	-186.038	65.8381	40.1905	-168.159	86.3604	37.956	-143.221	92.3219	30.8513	-120.799	89.6362	31.5733	-136.022	72.0014	-3.14278	-117.384	82.6917	-8.44494	-93.374	97.3509	-11.562	-121.855	66.4262	14.612	-113.873	83.0805	40.8143	-137.561	71.6683	53.9229	-113.763	56.7279	32.6942	-123.212	71.0166	53.7132	-146.532	59.8596	56.3304	-113.861	41.2748	41.1594	-122.534	56.3153	60.3337	-147.453	48.695	58.5307	-150.193	20.9298	26.6798	-177.386	12.7885	43.9797	-178.916	35.2603	25.036	
29	0.241667	-190.303	53.4313	39.1058	-174.326	76.2373	26.1417	-155.813	89.9975	15.3275	-129.482	89.854	14.278	-146.429	58.9436	-12.5292	-131.58	74.0227	-25.4486	-114.41	92.095	-34.9944	-123.988	60.8714	3.57557	-120.395	81.942	24.5806	-146.763	68.8622	41.2543	-118.508	55.5039	20.3184	-125.908	70.629	40.34	-145.983	55.1877	49.7356	-115.774	43.4923	31.2701	-124.251	60.2994	48.6035	-146.604	47.0038	49.0189	-153.221	16.5448	26.6276	-169.512	8.03286	44.6975	-179.604	24.7901	24.5073	
30	0.25	-190.956	38.2683	31.2565	-184.632	62.614	10.7819	-166.494	69.2244	1.30632	-141.212	71.7182	-5.75649	-159.695	37.9024	-28.4121	-145.935	44.858	-40.3014	-129.483	60.131	-58.765	-135.479	42.6925	-9.91557	-129.094	70.2308	3.96521	-148.195	60.6929	26.6017	-124.08	45.0114	4.45742	-131.026	63.0951	24.7429	-152.608	48.4744	33.6276	-118.09	37.1544	19.3486	-125.655	54.6265	31.8078	-150.041	39.5384	41.2357	-149.415	2.21857	24.1919	-166.37	-1.89112	48.7771	-179.678	8.91929	24.6195	
31	0.258333	-199.555	28.6793	30.2749	-194.584	48.851	3.05653	-178.49	50.5135	-11.498	-156	54.365	-25.929	-172.442	9.55362	-30.8786	-165.965	13.793	-50.086	-153.973	20.8823	-71.9603	-148.694	24.6376	-23.4634	-143.282	51.4677	-15.1394	-160.944	48.9187	11.603	-134.353	24.139	-5.28772	-138.443	47.7839	2.6561	-157.45	39.1331	23.5128	-125.494	18.9886	9.16581	-132.1	43.8395	17.1173	-151.387	36.2684	29.8675	-158.717	-9.0158	25.3999	-172.524	-6.1782	51.6313	-190.025	0.358821	25.2786	
32	0.266667	-204.882	26.0544	28.2718	-199.987	39.6932	1.25819	-186.713	40.4178	-20.044	-166.001	34.775	-32.1667	-192.882	-5.02435	-25.2351	-183.317	-9.48782	-49.0917	-174.04	-10.8483	-71.3751	-162.764	3.37117	-24.2448	-151.217	31.2277	-27.4646	-165.824	36.8441	1.35688	-149.114	6.45383	-13.4074	-144.931	31.9978	-8.15807	-160.924	31.336	15.5686	-134.954	3.97203	2.18459	-141.46	28.1468	2.82341	-159.311	24.5715	22.8478	-169.042	-17.6328	26.7291	-179.963	-8.52449	53.8356	-194.417	-5.30949	31.9962	
33	0.275	-208.21	32.5178	28.5449	-199.217	39.7093	-2.22702	-185.956	31.9494	-24.9142	-170.905	24.3768	-34.8379	-202.603	-10.4558	-21.1746	-199.37	-19.4312	-43.2412	-195.116	-24.9959	-66.6021	-175.565	-5.35325	-26.2515	-158.302	16.2261	-30.747	-166.184	28.6602	-2.95345	-159.496	-4.6878	-15.1565	-150.561	17.73	-11.7529	-164.073	22.7157	14.1446	-144.709	-9.09596	-2.028	-146.594	14.0353	-0.351382	-159.306	20.0343	20.8251	-184.784	-18.9902	28.7292	-188.489	-9.7214	52.8606	-205.479	-3.95215	34.0597	
34	0.283333	-201.039	38.5937	30.0277	-190.914	45.4042	-1.25002	-182.809	33.7671	-20.8253	-170.942	17.1447	-34.2621	-215.511	-1.42602	-18.3218	-215.52	-14.5413	-43.2724	-215.789	-21.7544	-59.5419	-186.848	-7.78506	-26.2617	-162.497	8.4751	-28.7472	-169.68	21.4511	0.308202	-170.217	-14.6714	-13.1966	-156.219	10.2689	-12.4938	-165.253	16.7324	14.386	-160.787	-22.3457	2.35319	-150.768	3.01657	-0.706388	-164.531	12.3326	19.164	-196.732	-15.7525	31.1515	-194.922	-4.13132	58.6635	-210.272	4.6441	36.4868	
